<svg xmlns="http://www.w3.org/2000/svg" viewBox="0 0 64 64" width="64" height="64">
  <rect width="64" height="64" rx="14" fill="#1B2B4B"/>
  <path d="M20 10C14.48 10 10 14.48 10 20c0 7.6 4.5 15.6 8.67 21.97C20.9 45.35 23.77 50.52 25 54c.93 1.87 2.08 2.67 3.33 2.67 1.42 0 2.43-1.01 2.8-2.67.75-3.25 1.39-7.87 1.87-11.07.58-3.73 2.05-7.6 5.33-7.6s4.75 3.87 5.33 7.6c.48 3.2 1.12 7.82 1.87 11.07.37 1.66 1.38 2.67 2.8 2.67 1.25 0 2.4-.8 3.33-2.67 1.23-3.48 4.1-8.65 6.33-12.03C62.5 35.6 64 27.6 64 20c0-5.52-4.48-10-10-10-4.27 0-8.08 2.03-10.53 5.17C42.32 13.27 41.55 13 40.67 13c-.88 0-1.65.27-2.53.67L37.6 15.17C35.08 12.03 31.27 10 27 10z" transform="translate(-5, -4) scale(0.85)" fill="#DC3545"/>
</svg>
